<?xml version="1.0" encoding="UTF-8"?>
<svg width="24px" height="24px" viewBox="0 0 24 24" version="1.1" xmlns="http://www.w3.org/2000/svg" xmlns:xlink="http://www.w3.org/1999/xlink">
    <title>twitter</title>
    <defs>
        <path d="M9.28333333,19.2725052 C15.575,19.2725052 19.0120833,14.0641667 19.0120833,9.54375 C19.0120833,9.39541667 19.0091667,9.24791667 19.0025,9.10166667 C19.6716562,8.61725379 20.2492714,8.0176288 20.7083333,7.33083333 C20.0844447,7.60772525 19.422456,7.78919977 18.7445833,7.86916667 C19.4590842,7.44211237 19.994081,6.76999764 20.25,5.97791667 C19.5787132,6.37603749 18.8444319,6.65672996 18.07875,6.80791667 C17.0197185,5.67763915 15.3334916,5.39973343 13.9677613,6.13038788 C12.6020311,6.86104234 11.8974474,8.41801205 12.25,9.92625 C9.50028032,9.78869482 6.93827141,8.49012162 5.20166667,6.35375 C4.29362813,7.91614458 4.75710468,9.91529773 6.26,10.91875 C5.71710334,10.9019275 5.18615243,10.7551873 4.71166667,10.4908333 C4.71166667,10.505 4.71166667,10.5195833 4.71166667,10.5345833 C4.71197513,12.1623781 5.85941699,13.5644391 7.455,13.8866667 C6.95154596,14.0240959 6.42327421,14.0441948 5.91083333,13.9454167 C6.35862323,15.3383256 7.64214605,16.2926799 9.105,16.3204167 C7.89377772,17.2709985 6.39802793,17.7865566 4.85833333,17.7841667 C4.58541369,17.7844138 4.31271734,17.7685529 4.04166667,17.7366667 C5.60519471,18.7412475 7.4248934,19.2744279 9.28333333,19.2725052" id="path-1"></path>
    </defs>
    <g id="twitter" stroke="none" stroke-width="1" fill="none" fill-rule="evenodd">
        <mask id="mask-2" fill="white">
            <use xlink:href="#path-1"></use>
        </mask>
        <use id="Path" fill="#000000" fill-rule="nonzero" xlink:href="#path-1"></use>
    </g>
</svg>