<?xml version="1.0" encoding="UTF-8"?>
<svg width="24px" height="24px" viewBox="0 0 24 24" version="1.1" xmlns="http://www.w3.org/2000/svg" xmlns:xlink="http://www.w3.org/1999/xlink">
    <title>ui_core_cross</title>
    <defs>
        <path d="M19,11.3333333 L12.6666667,11.3333333 L12.6666667,5 C12.6666667,4.63181017 12.3681898,4.33333333 12,4.33333333 C11.6318102,4.33333333 11.3333333,4.63181017 11.3333333,5 L11.3333333,11.3333333 L5,11.3333333 C4.63181017,11.3333333 4.33333333,11.6318102 4.33333333,12 C4.33333333,12.3681898 4.63181017,12.6666667 5,12.6666667 L11.3333333,12.6666667 L11.3333333,19 C11.3333333,19.3681898 11.6318102,19.6666667 12,19.6666667 C12.3681898,19.6666667 12.6666667,19.3681898 12.6666667,19 L12.6666667,12.6666667 L19,12.6666667 C19.3681898,12.6666667 19.6666667,12.3681898 19.6666667,12 C19.6666667,11.6318102 19.3681898,11.3333333 19,11.3333333 Z" id="path-1"></path>
    </defs>
    <g id="ui_core_cross" stroke="none" stroke-width="1" fill="none" fill-rule="evenodd">
        <mask id="mask-2" fill="white">
            <use xlink:href="#path-1"></use>
        </mask>
        <use id="Path" fill="#000000" fill-rule="nonzero" xlink:href="#path-1"></use>
    </g>
</svg>