<?xml version="1.0" encoding="UTF-8"?>
<svg width="56px" height="56px" viewBox="0 0 56 56" version="1.1" xmlns="http://www.w3.org/2000/svg" xmlns:xlink="http://www.w3.org/1999/xlink">
    <title>Artboard</title>
    <g id="Artboard" stroke="none" stroke-width="1" fill="none" fill-rule="evenodd">
        <path d="M28.127417,9.83452378 C35.3071187,9.83452378 41.127417,15.654822 41.127417,22.8345238 C41.127417,29.5068599 36.1006556,35.0051331 29.6275739,35.7489022 L29.627417,44.9203102 C29.627417,45.7487373 28.9558441,46.4203102 28.127417,46.4203102 C27.3477209,46.4203102 26.7069683,45.8254221 26.6342836,45.0647702 L26.627417,44.9203102 L26.6282552,35.7490165 C20.1546935,35.0056965 15.127417,29.5072018 15.127417,22.8345238 C15.127417,15.654822 20.9477153,9.83452378 28.127417,9.83452378 Z M28.127417,12.8345238 C22.6045695,12.8345238 18.127417,17.3116763 18.127417,22.8345238 C18.127417,28.3573713 22.6045695,32.8345238 28.127417,32.8345238 C33.6502645,32.8345238 38.127417,28.3573713 38.127417,22.8345238 C38.127417,17.3116763 33.6502645,12.8345238 28.127417,12.8345238 Z" id="Combined-Shape" fill="#000000" fill-rule="nonzero" transform="translate(28.127417, 28.127417) rotate(-45.000000) translate(-28.127417, -28.127417) "></path>
    </g>
</svg>